# xmcd
#
# Track frame offsets:
#	150
#	14397
#	30825
#	44760
#	65576
#	82663
#	96678
#	109811
#	124245
#	137487
#	154554
#	170260
#	184301
#	204639
#
# Disc length: 2909 seconds
#
# Revision: 1
# Processed by: cddbd v1.4PL0 Copyright (c) Steve Scherf et al.
# Submitted via: audiograbber 1.80
#
DISCID=ba0b5b0e
DTITLE=Latin Piano - Tequila
DYEAR=1900
DGENRE=
TTITLE0=Besame Mucho
TTITLE1=Desatinado
TTITLE2=Brazil
TTITLE3=Volare
TTITLE4=Samba de Una Nota So
TTITLE5=Carnival in Rio
TTITLE6=Perfidia
TTITLE7=Blue Bossa
TTITLE8=Petite Fleur
TTITLE9=Indian Summer
TTITLE10=Wave
TTITLE11=Tequila
TTITLE12=The Girl from Ipanema
TTITLE13=La Bamba
EXTD=
EXTT0=
EXTT1=
EXTT2=
EXTT3=
EXTT4=
EXTT5=
EXTT6=
EXTT7=
EXTT8=
EXTT9=
EXTT10=
EXTT11=
EXTT12=
EXTT13=
PLAYORDER=
